<mxfile host="app.diagrams.net" agent="Mozilla/5.0 (Windows NT 10.0; Win64; x64) AppleWebKit/537.36 (KHTML, like Gecko) Chrome/135.0.0.0 Safari/537.36" version="26.1.1">
  <diagram name="第 1 页" id="Ni_WKqLI4Xv_hpvND1EC">
    <mxGraphModel dx="1221" dy="660" grid="1" gridSize="10" guides="1" tooltips="1" connect="1" arrows="1" fold="1" page="1" pageScale="1" pageWidth="827" pageHeight="1169" math="0" shadow="0">
      <root>
        <mxCell id="0" />
        <mxCell id="1" parent="0" />
        <mxCell id="mybVQWc4OZ3fKwiOhGIq-6" style="edgeStyle=orthogonalEdgeStyle;rounded=0;orthogonalLoop=1;jettySize=auto;html=1;exitX=0.5;exitY=1;exitDx=0;exitDy=0;entryX=0.5;entryY=0;entryDx=0;entryDy=0;" edge="1" parent="1" source="mybVQWc4OZ3fKwiOhGIq-1" target="mybVQWc4OZ3fKwiOhGIq-4">
          <mxGeometry relative="1" as="geometry" />
        </mxCell>
        <mxCell id="mybVQWc4OZ3fKwiOhGIq-8" value="rope" style="edgeLabel;html=1;align=center;verticalAlign=middle;resizable=0;points=[];" vertex="1" connectable="0" parent="mybVQWc4OZ3fKwiOhGIq-6">
          <mxGeometry x="-0.35" relative="1" as="geometry">
            <mxPoint as="offset" />
          </mxGeometry>
        </mxCell>
        <mxCell id="mybVQWc4OZ3fKwiOhGIq-1" value="Q(fp8)" style="rounded=0;whiteSpace=wrap;html=1;" vertex="1" parent="1">
          <mxGeometry x="150" y="100" width="40" height="40" as="geometry" />
        </mxCell>
        <mxCell id="mybVQWc4OZ3fKwiOhGIq-7" style="edgeStyle=orthogonalEdgeStyle;rounded=0;orthogonalLoop=1;jettySize=auto;html=1;exitX=0.5;exitY=1;exitDx=0;exitDy=0;entryX=0.5;entryY=0;entryDx=0;entryDy=0;" edge="1" parent="1" source="mybVQWc4OZ3fKwiOhGIq-2" target="mybVQWc4OZ3fKwiOhGIq-5">
          <mxGeometry relative="1" as="geometry" />
        </mxCell>
        <mxCell id="mybVQWc4OZ3fKwiOhGIq-9" value="rope" style="edgeLabel;html=1;align=center;verticalAlign=middle;resizable=0;points=[];" vertex="1" connectable="0" parent="mybVQWc4OZ3fKwiOhGIq-7">
          <mxGeometry x="-0.35" y="-2" relative="1" as="geometry">
            <mxPoint as="offset" />
          </mxGeometry>
        </mxCell>
        <mxCell id="mybVQWc4OZ3fKwiOhGIq-2" value="K(fp8)" style="rounded=0;whiteSpace=wrap;html=1;" vertex="1" parent="1">
          <mxGeometry x="260" y="100" width="40" height="40" as="geometry" />
        </mxCell>
        <mxCell id="mybVQWc4OZ3fKwiOhGIq-26" style="edgeStyle=orthogonalEdgeStyle;rounded=0;orthogonalLoop=1;jettySize=auto;html=1;exitX=0.5;exitY=1;exitDx=0;exitDy=0;entryX=0.5;entryY=0;entryDx=0;entryDy=0;" edge="1" parent="1" source="mybVQWc4OZ3fKwiOhGIq-3" target="mybVQWc4OZ3fKwiOhGIq-23">
          <mxGeometry relative="1" as="geometry">
            <Array as="points">
              <mxPoint x="394" y="240" />
              <mxPoint x="360" y="240" />
            </Array>
          </mxGeometry>
        </mxCell>
        <mxCell id="mybVQWc4OZ3fKwiOhGIq-3" value="V(fp8)" style="rounded=0;whiteSpace=wrap;html=1;" vertex="1" parent="1">
          <mxGeometry x="374" y="100" width="40" height="40" as="geometry" />
        </mxCell>
        <mxCell id="mybVQWc4OZ3fKwiOhGIq-17" style="edgeStyle=orthogonalEdgeStyle;rounded=0;orthogonalLoop=1;jettySize=auto;html=1;exitX=0.5;exitY=1;exitDx=0;exitDy=0;entryX=0.5;entryY=0;entryDx=0;entryDy=0;" edge="1" parent="1" source="mybVQWc4OZ3fKwiOhGIq-4" target="mybVQWc4OZ3fKwiOhGIq-11">
          <mxGeometry relative="1" as="geometry">
            <Array as="points">
              <mxPoint x="170" y="330" />
              <mxPoint x="210" y="330" />
            </Array>
          </mxGeometry>
        </mxCell>
        <mxCell id="mybVQWc4OZ3fKwiOhGIq-4" value="Qro(fp8)" style="rounded=0;whiteSpace=wrap;html=1;" vertex="1" parent="1">
          <mxGeometry x="150" y="180" width="40" height="40" as="geometry" />
        </mxCell>
        <mxCell id="mybVQWc4OZ3fKwiOhGIq-14" style="edgeStyle=orthogonalEdgeStyle;rounded=0;orthogonalLoop=1;jettySize=auto;html=1;exitX=0.5;exitY=1;exitDx=0;exitDy=0;entryX=0.5;entryY=0;entryDx=0;entryDy=0;" edge="1" parent="1" source="mybVQWc4OZ3fKwiOhGIq-5" target="mybVQWc4OZ3fKwiOhGIq-13">
          <mxGeometry relative="1" as="geometry" />
        </mxCell>
        <mxCell id="mybVQWc4OZ3fKwiOhGIq-5" value="Kro(fp8)" style="rounded=0;whiteSpace=wrap;html=1;" vertex="1" parent="1">
          <mxGeometry x="260" y="180" width="40" height="40" as="geometry" />
        </mxCell>
        <mxCell id="mybVQWc4OZ3fKwiOhGIq-15" style="edgeStyle=orthogonalEdgeStyle;rounded=0;orthogonalLoop=1;jettySize=auto;html=1;exitX=0.5;exitY=1;exitDx=0;exitDy=0;entryX=0.5;entryY=0;entryDx=0;entryDy=0;" edge="1" parent="1" source="mybVQWc4OZ3fKwiOhGIq-10" target="mybVQWc4OZ3fKwiOhGIq-13">
          <mxGeometry relative="1" as="geometry" />
        </mxCell>
        <mxCell id="mybVQWc4OZ3fKwiOhGIq-16" value="concat" style="edgeLabel;html=1;align=center;verticalAlign=middle;resizable=0;points=[];" vertex="1" connectable="0" parent="mybVQWc4OZ3fKwiOhGIq-15">
          <mxGeometry x="0.575" y="-1" relative="1" as="geometry">
            <mxPoint as="offset" />
          </mxGeometry>
        </mxCell>
        <mxCell id="mybVQWc4OZ3fKwiOhGIq-10" value="Kcache（fp8）" style="rounded=0;whiteSpace=wrap;html=1;" vertex="1" parent="1">
          <mxGeometry x="210" y="180" width="40" height="40" as="geometry" />
        </mxCell>
        <mxCell id="mybVQWc4OZ3fKwiOhGIq-21" style="edgeStyle=orthogonalEdgeStyle;rounded=0;orthogonalLoop=1;jettySize=auto;html=1;exitX=0.5;exitY=1;exitDx=0;exitDy=0;entryX=0.5;entryY=0;entryDx=0;entryDy=0;" edge="1" parent="1" source="mybVQWc4OZ3fKwiOhGIq-11" target="mybVQWc4OZ3fKwiOhGIq-20">
          <mxGeometry relative="1" as="geometry" />
        </mxCell>
        <mxCell id="mybVQWc4OZ3fKwiOhGIq-22" value="Softmax" style="edgeLabel;html=1;align=center;verticalAlign=middle;resizable=0;points=[];" vertex="1" connectable="0" parent="mybVQWc4OZ3fKwiOhGIq-21">
          <mxGeometry x="-0.2" relative="1" as="geometry">
            <mxPoint as="offset" />
          </mxGeometry>
        </mxCell>
        <mxCell id="mybVQWc4OZ3fKwiOhGIq-11" value="QK^T (fp16)" style="rounded=0;whiteSpace=wrap;html=1;" vertex="1" parent="1">
          <mxGeometry x="180" y="390" width="60" height="40" as="geometry" />
        </mxCell>
        <mxCell id="mybVQWc4OZ3fKwiOhGIq-18" style="edgeStyle=orthogonalEdgeStyle;rounded=0;orthogonalLoop=1;jettySize=auto;html=1;exitX=0.5;exitY=1;exitDx=0;exitDy=0;entryX=0.5;entryY=0;entryDx=0;entryDy=0;" edge="1" parent="1" source="mybVQWc4OZ3fKwiOhGIq-13" target="mybVQWc4OZ3fKwiOhGIq-11">
          <mxGeometry relative="1" as="geometry">
            <Array as="points">
              <mxPoint x="250" y="330" />
              <mxPoint x="210" y="330" />
            </Array>
          </mxGeometry>
        </mxCell>
        <mxCell id="mybVQWc4OZ3fKwiOhGIq-28" value="matmul" style="edgeLabel;html=1;align=center;verticalAlign=middle;resizable=0;points=[];" vertex="1" connectable="0" parent="mybVQWc4OZ3fKwiOhGIq-18">
          <mxGeometry x="0.3833" relative="1" as="geometry">
            <mxPoint as="offset" />
          </mxGeometry>
        </mxCell>
        <mxCell id="mybVQWc4OZ3fKwiOhGIq-13" value="Kcahe+K(fp8)" style="rounded=0;whiteSpace=wrap;html=1;" vertex="1" parent="1">
          <mxGeometry x="220" y="270" width="60" height="40" as="geometry" />
        </mxCell>
        <mxCell id="mybVQWc4OZ3fKwiOhGIq-25" style="edgeStyle=orthogonalEdgeStyle;rounded=0;orthogonalLoop=1;jettySize=auto;html=1;exitX=0.5;exitY=1;exitDx=0;exitDy=0;entryX=0.5;entryY=0;entryDx=0;entryDy=0;" edge="1" parent="1" source="mybVQWc4OZ3fKwiOhGIq-19" target="mybVQWc4OZ3fKwiOhGIq-23">
          <mxGeometry relative="1" as="geometry">
            <Array as="points">
              <mxPoint x="340" y="240" />
              <mxPoint x="360" y="240" />
            </Array>
          </mxGeometry>
        </mxCell>
        <mxCell id="mybVQWc4OZ3fKwiOhGIq-27" value="concat" style="edgeLabel;html=1;align=center;verticalAlign=middle;resizable=0;points=[];" vertex="1" connectable="0" parent="mybVQWc4OZ3fKwiOhGIq-25">
          <mxGeometry x="0.5476" y="-1" relative="1" as="geometry">
            <mxPoint as="offset" />
          </mxGeometry>
        </mxCell>
        <mxCell id="mybVQWc4OZ3fKwiOhGIq-19" value="Vcache（fp8）" style="rounded=0;whiteSpace=wrap;html=1;" vertex="1" parent="1">
          <mxGeometry x="320" y="180" width="40" height="40" as="geometry" />
        </mxCell>
        <mxCell id="mybVQWc4OZ3fKwiOhGIq-32" style="edgeStyle=orthogonalEdgeStyle;rounded=0;orthogonalLoop=1;jettySize=auto;html=1;exitX=0.5;exitY=1;exitDx=0;exitDy=0;entryX=0.5;entryY=0;entryDx=0;entryDy=0;" edge="1" parent="1" source="mybVQWc4OZ3fKwiOhGIq-20" target="mybVQWc4OZ3fKwiOhGIq-31">
          <mxGeometry relative="1" as="geometry" />
        </mxCell>
        <mxCell id="mybVQWc4OZ3fKwiOhGIq-35" value="convet" style="edgeLabel;html=1;align=center;verticalAlign=middle;resizable=0;points=[];" vertex="1" connectable="0" parent="mybVQWc4OZ3fKwiOhGIq-32">
          <mxGeometry x="-0.26" y="-1" relative="1" as="geometry">
            <mxPoint as="offset" />
          </mxGeometry>
        </mxCell>
        <mxCell id="mybVQWc4OZ3fKwiOhGIq-20" value="S(QK^T) (fp16)" style="rounded=0;whiteSpace=wrap;html=1;" vertex="1" parent="1">
          <mxGeometry x="180" y="470" width="60" height="40" as="geometry" />
        </mxCell>
        <mxCell id="mybVQWc4OZ3fKwiOhGIq-30" style="edgeStyle=orthogonalEdgeStyle;rounded=0;orthogonalLoop=1;jettySize=auto;html=1;exitX=0.5;exitY=1;exitDx=0;exitDy=0;" edge="1" parent="1" source="mybVQWc4OZ3fKwiOhGIq-23" target="mybVQWc4OZ3fKwiOhGIq-29">
          <mxGeometry relative="1" as="geometry">
            <Array as="points">
              <mxPoint x="360" y="620" />
              <mxPoint x="270" y="620" />
            </Array>
          </mxGeometry>
        </mxCell>
        <mxCell id="mybVQWc4OZ3fKwiOhGIq-23" value="Vcahe+V(fp8)" style="rounded=0;whiteSpace=wrap;html=1;" vertex="1" parent="1">
          <mxGeometry x="330" y="270" width="60" height="40" as="geometry" />
        </mxCell>
        <mxCell id="mybVQWc4OZ3fKwiOhGIq-29" value="S(QK^T) (fp8)" style="rounded=0;whiteSpace=wrap;html=1;" vertex="1" parent="1">
          <mxGeometry x="240" y="660" width="60" height="40" as="geometry" />
        </mxCell>
        <mxCell id="mybVQWc4OZ3fKwiOhGIq-33" style="edgeStyle=orthogonalEdgeStyle;rounded=0;orthogonalLoop=1;jettySize=auto;html=1;exitX=0.5;exitY=1;exitDx=0;exitDy=0;entryX=0.5;entryY=0;entryDx=0;entryDy=0;" edge="1" parent="1" source="mybVQWc4OZ3fKwiOhGIq-31" target="mybVQWc4OZ3fKwiOhGIq-29">
          <mxGeometry relative="1" as="geometry">
            <Array as="points">
              <mxPoint x="210" y="620" />
              <mxPoint x="270" y="620" />
            </Array>
          </mxGeometry>
        </mxCell>
        <mxCell id="mybVQWc4OZ3fKwiOhGIq-34" value="matmul" style="edgeLabel;html=1;align=center;verticalAlign=middle;resizable=0;points=[];" vertex="1" connectable="0" parent="mybVQWc4OZ3fKwiOhGIq-33">
          <mxGeometry x="0.5754" relative="1" as="geometry">
            <mxPoint as="offset" />
          </mxGeometry>
        </mxCell>
        <mxCell id="mybVQWc4OZ3fKwiOhGIq-31" value="S(QK^T) (fp8)" style="rounded=0;whiteSpace=wrap;html=1;" vertex="1" parent="1">
          <mxGeometry x="180" y="550" width="60" height="40" as="geometry" />
        </mxCell>
      </root>
    </mxGraphModel>
  </diagram>
</mxfile>
